<svg xmlns="http://www.w3.org/2000/svg" viewBox="-3 -3 70 70"><rect width="70" height="70" x="-3" y="-3" fill="#2196f3" rx="0"/><path fill="#fff" d="M22.7 12H7.3a2.3 2.3 0 0 1 0-4.6 2.26 2.26 0 0 1 .83.16 1 1 0 0 0 .84 0 1 1 0 0 0 .5-.68A3.38 3.38 0 0 1 15.11 5a1 1 0 0 0 .74.26 1 1 0 0 0 .7-.35 2.29 2.29 0 0 1 4.05 1.47 1.11 1.11 0 0 0 0 .17 1 1 0 0 0 .4.86 1 1 0 0 0 .94.14A2.29 2.29 0 1 1 22.7 12Zm35 41H42.3a2.3 2.3 0 0 1 0-4.6 2.26 2.26 0 0 1 .83.16 1 1 0 0 0 .84-.05 1 1 0 0 0 .5-.68A3.38 3.38 0 0 1 50.11 46a1 1 0 0 0 .74.26 1 1 0 0 0 .7-.35 2.29 2.29 0 0 1 4.05 1.45 1.11 1.11 0 0 0 0 .17 1 1 0 0 0 .4.86 1 1 0 0 0 .94.14A2.29 2.29 0 1 1 57.7 53ZM15 34H7a1 1 0 0 1 0-2h1a1 1 0 0 0 1-1 2 2 0 0 1 4 0 1 1 0 0 0 1 1h1a1 1 0 0 1 0 2Zm45-23.71-1.32 20.35-9.51-9.5Zm-12.24 9.43-9.56-9.56 20.4-1.27Zm9.62 12.45-25.61 6.37 11.88-11.88 4.11-4.11ZM36.73 11.52l9.62 9.62-4.12 4.11-11.86 11.86Zm-3.56 32.25a1 1 0 0 0-.76-.69L28 42.21l1.63-1.47a1 1 0 0 0-1.34-1.48L26.4 41l-1-4.9a1 1 0 0 0-.69-.76 1 1 0 0 0-1 .25l-5.65 5.65a1 1 0 0 0 .51 1.69l4.64.93-1.12 1a5.82 5.82 0 0 0-.23 8.44 3.81 3.81 0 0 1 0 5.4l-1.59 1.59a1 1 0 0 0 0 1.42 1 1 0 0 0 1.42 0l1.59-1.59a5.84 5.84 0 0 0 0-8.24 3.75 3.75 0 0 1-1.12-2.8 3.81 3.81 0 0 1 1.27-2.74l1.2-1.08.93 4.65a1 1 0 0 0 1 .81 1 1 0 0 0 .71-.3l5.65-5.65a1 1 0 0 0 .25-1Z"/></svg>