<svg xmlns="http://www.w3.org/2000/svg" viewBox="0 0 500 500"><defs><clipPath id="c"><path d="M0 0h500v500H0z"/></clipPath><filter id="a" width="100%" height="100%" x="0%" y="0%" filterUnits="objectBoundingBox"><feComponentTransfer in="SourceGraphic"><feFuncA tableValues="1.0 0.0" type="table"/></feComponentTransfer></filter><path id="b" fill="#F7C7BE" d="M-11 1c-32-1-41-4-41-8-1-3 6-5 12-16 6-10 4-18 8-19 3-2 11 3 29 31" transform="translate(394 144)"/><mask id="d" mask-type="alpha"><g filter="url(#a)"><use xmlns:ns1="http://www.w3.org/1999/xlink" ns1:href="#b"/></g></mask></defs><g clip-path="url(#c)"><g><path fill="#F089A6" d="m231 164-3 100-4 104-2 3h-2l-1-1-80-68-75-65a3 3 0 0 1-1-2 3 3 0 0 1 1-1l23-60 22-57 1-1h3l55 21 62 24a3 3 0 0 1 1 3z"/><path fill="#4EB0FB" d="m231 164-4 112-3 92-2 3-43-98-32-74 84-37v2z"/><path fill="#FDC539" d="m231 162-49 22-35 15-16-38-20-45h2l61 24 56 21 1 1z"/><path fill="#F089A6" d="m-29 121-2-1-77-67-77-66a3 3 0 0 1-1-2v-1l23-59 23-58v-1l-15 62-12 49 55 58 83 86z" opacity=".5" style="mix-blend-mode:multiply" transform="translate(250 250)"/><path fill="#2EA28B" d="m147 199-64 28-20 8 1-1 24-62 21-55 1-1h1l20 46 16 37z"/><path fill="#2EA28B" d="m-140-134-15 62-12 49-19 8v-1l23-60 23-57v-1z" opacity=".5" style="mix-blend-mode:multiply" transform="translate(250 250)"/></g><path fill="none" stroke="#121331" stroke-linecap="round" stroke-linejoin="round" stroke-width="7" d="M224 374c-54-44-116-99-161-138 15-38 34-90 48-121l121 47-8 212zM111 115l37 84 76 175m8-212-85 37-84 37m161 138c39 39 89 53 136 11 36-32 38-82 11-119a90 90 0 0 1-1-106l48-70"/><g fill="#F7C7BE"><path d="M390 151c18 27 25 31 28 30 3-2 1-9 7-19 5-12 13-14 12-18-1-3-8-7-41-8m-23 5c-32-1-40-4-41-8-1-3 6-5 12-16 7-10 5-18 8-19 4-1 11 3 29 31"/><path d="M395 146a12 12 0 1 0-21-12 12 12 0 0 0 21 12z"/><path fill-opacity=".5" d="M11 6A12 12 0 1 0-11-6 12 12 0 0 0 11 6z" transform="translate(384 140)"/></g><g mask="url(#d)" opacity=".5"><path fill="#F7C7BE" d="M373 141c-32-1-40-4-41-8-1-3 6-5 12-16 7-10 5-18 8-19 4-1 11 3 29 31" opacity="1"/></g><path fill="none" stroke="#121331" stroke-linecap="round" stroke-linejoin="round" stroke-width="7" d="M372 141c-32 0-39-4-40-8-1-3 6-5 12-16 7-10 5-18 8-19 4-1 11 3 29 30m9 23c18 27 25 31 28 30 3-2 1-9 7-19 5-12 13-14 12-18-1-3-8-7-41-8m-1 10a12 12 0 1 0-21-12 12 12 0 0 0 21 12z"/></g></svg>