<svg xmlns="http://www.w3.org/2000/svg" width="256" height="256" viewBox="0 0 100 100"><path fill="#ff4343" d="M43.22 65.96L43.22 65.96Q47.24 65.96 49.31 64.13Q51.38 62.30 51.38 59.42L51.38 59.42Q51.38 56.90 49.79 55.34Q48.20 53.78 44.78 52.76L44.78 52.76L39.56 51.20Q35.72 50.06 33.53 47.84Q31.34 45.62 31.34 41.84L31.34 41.84Q31.34 39.56 32.21 37.73Q33.08 35.90 34.70 34.64Q36.32 33.38 38.57 32.69Q40.82 32.00 43.64 32.00L43.64 32.00Q46.04 32.00 48.11 32.39Q50.18 32.78 51.71 33.47Q53.24 34.16 54.08 35.00Q54.92 35.84 54.92 36.74L54.92 36.74Q54.92 37.58 54.50 38.18Q54.08 38.78 53.42 39.14L53.42 39.14Q51.86 37.94 49.37 37.04Q46.88 36.14 43.82 36.14L43.82 36.14Q40.28 36.14 38.27 37.64Q36.26 39.14 36.26 41.84L36.26 41.84Q36.26 43.94 37.70 45.26Q39.14 46.58 42.50 47.54L42.50 47.54L46.16 48.62Q50.90 50.00 53.63 52.49Q56.36 54.98 56.36 59.42L56.36 59.42Q56.36 64.16 52.94 67.10Q49.52 70.04 43.22 70.04L43.22 70.04Q40.46 70.04 38.21 69.56Q35.96 69.08 34.37 68.30Q32.78 67.52 31.91 66.59Q31.04 65.66 31.04 64.76L31.04 64.76Q31.04 63.74 31.67 63.05Q32.30 62.36 33.14 62.06L33.14 62.06Q33.80 62.72 34.76 63.41Q35.72 64.10 36.98 64.67Q38.24 65.24 39.80 65.60Q41.36 65.96 43.22 65.96ZM68.96 69.14L68.96 69.14Q68.66 69.26 68.06 69.41Q67.46 69.56 66.74 69.56L66.74 69.56Q64.16 69.56 64.16 67.40L64.16 67.40L64.16 30.38Q64.46 30.26 65.09 30.11Q65.72 29.96 66.38 29.96L66.38 29.96Q68.96 29.96 68.96 32.12L68.96 32.12L68.96 69.14Z"></path></svg>