<svg xmlns="http://www.w3.org/2000/svg" width="256" height="256" viewBox="0 0 100 100"><path fill="#ff4343" d="M25.88 64.94L25.88 64.94Q29.90 64.94 31.97 63.11Q34.04 61.28 34.04 58.40L34.04 58.40Q34.04 55.88 32.45 54.32Q30.86 52.76 27.44 51.74L27.44 51.74L22.22 50.18Q18.38 49.04 16.19 46.82Q14.00 44.60 14.00 40.82L14.00 40.82Q14.00 38.54 14.87 36.71Q15.74 34.88 17.36 33.62Q18.98 32.36 21.23 31.67Q23.48 30.98 26.30 30.98L26.30 30.98Q28.70 30.98 30.77 31.37Q32.84 31.76 34.37 32.45Q35.90 33.14 36.74 33.98Q37.58 34.82 37.58 35.72L37.58 35.72Q37.58 36.56 37.16 37.16Q36.74 37.76 36.08 38.12L36.08 38.12Q34.52 36.92 32.03 36.02Q29.54 35.12 26.48 35.12L26.48 35.12Q22.94 35.12 20.93 36.62Q18.92 38.12 18.92 40.82L18.92 40.82Q18.92 42.92 20.36 44.24Q21.80 45.56 25.16 46.52L25.16 46.52L28.82 47.60Q33.56 48.98 36.29 51.47Q39.02 53.96 39.02 58.40L39.02 58.40Q39.02 63.14 35.60 66.08Q32.18 69.02 25.88 69.02L25.88 69.02Q23.12 69.02 20.87 68.54Q18.62 68.06 17.03 67.28Q15.44 66.50 14.57 65.57Q13.70 64.64 13.70 63.74L13.70 63.74Q13.70 62.72 14.33 62.03Q14.96 61.34 15.80 61.04L15.80 61.04Q16.46 61.70 17.42 62.39Q18.38 63.08 19.64 63.65Q20.90 64.22 22.46 64.58Q24.02 64.94 25.88 64.94ZM81.50 49.40L81.50 49.40Q81.50 46.46 79.82 45.08Q78.14 43.70 75.32 43.70L75.32 43.70Q71.42 43.70 68.36 46.46L68.36 46.46Q68.72 47.66 68.72 49.04L68.72 49.04L68.72 68.12Q68.42 68.24 67.79 68.39Q67.16 68.54 66.50 68.54L66.50 68.54Q63.92 68.54 63.92 66.38L63.92 66.38L63.92 49.40Q63.92 46.46 62.24 45.08Q60.56 43.70 57.68 43.70L57.68 43.70Q55.76 43.70 54.05 44.30Q52.34 44.90 51.14 45.68L51.14 45.68L51.14 68.12Q50.84 68.24 50.24 68.39Q49.64 68.54 48.92 68.54L48.92 68.54Q46.34 68.54 46.34 66.38L46.34 66.38L46.34 45.92Q46.34 44.72 46.85 43.91Q47.36 43.10 48.62 42.26L48.62 42.26Q50.24 41.24 52.73 40.49Q55.22 39.74 57.74 39.74L57.74 39.74Q60.68 39.74 62.96 40.61Q65.24 41.48 66.44 42.98L66.44 42.98Q68 41.60 70.34 40.67Q72.68 39.74 75.68 39.74L75.68 39.74Q80.54 39.74 83.42 42.05Q86.30 44.36 86.30 49.16L86.30 49.16L86.30 68.12Q86 68.24 85.37 68.39Q84.74 68.54 84.08 68.54L84.08 68.54Q81.50 68.54 81.50 66.38L81.50 66.38L81.50 49.40Z"></path></svg>