<svg xmlns="http://www.w3.org/2000/svg" width="256" height="256" viewBox="0 0 100 100"><path fill="#ff4343" d="M20.87 50.39L20.87 50.39Q20.87 47.45 19.19 46.07Q17.51 44.69 14.69 44.69L14.69 44.69Q10.79 44.69 7.73 47.45L7.73 47.45Q8.09 48.65 8.09 50.03L8.09 50.03L8.09 69.11Q7.79 69.23 7.16 69.38Q6.53 69.53 5.87 69.53L5.87 69.53Q3.29 69.53 3.29 67.37L3.29 67.37L3.29 50.39Q3.29 47.45 1.61 46.07Q-0.07 44.69-2.95 44.69L-2.95 44.69Q-4.87 44.69-6.58 45.29Q-8.29 45.89-9.49 46.67L-9.49 46.67L-9.49 69.11Q-9.79 69.23-10.39 69.38Q-10.99 69.53-11.71 69.53L-11.71 69.53Q-14.29 69.53-14.29 67.37L-14.29 67.37L-14.29 46.91Q-14.29 45.71-13.78 44.90Q-13.27 44.09-12.01 43.25L-12.01 43.25Q-10.39 42.23-7.90 41.48Q-5.41 40.73-2.89 40.73L-2.89 40.73Q0.05 40.73 2.33 41.60Q4.61 42.47 5.81 43.97L5.81 43.97Q7.37 42.59 9.71 41.66Q12.05 40.73 15.05 40.73L15.05 40.73Q19.91 40.73 22.79 43.04Q25.67 45.35 25.67 50.15L25.67 50.15L25.67 69.11Q25.37 69.23 24.74 69.38Q24.11 69.53 23.45 69.53L23.45 69.53Q20.87 69.53 20.87 67.37L20.87 67.37L20.87 50.39ZM44.57 66.11L44.57 66.11Q47.09 66.11 48.74 65.60Q50.39 65.09 51.11 64.61L51.11 64.61L51.11 55.91L43.67 56.69Q40.55 56.99 39.05 58.10Q37.55 59.21 37.55 61.37L37.55 61.37Q37.55 63.65 39.29 64.88Q41.03 66.11 44.57 66.11ZM44.51 40.73L44.51 40.73Q49.73 40.73 52.79 43.07Q55.85 45.41 55.85 50.45L55.85 50.45L55.85 64.67Q55.85 65.99 55.34 66.68Q54.83 67.37 53.81 67.97L53.81 67.97Q52.37 68.81 50.00 69.44Q47.63 70.07 44.57 70.07L44.57 70.07Q38.93 70.07 35.84 67.85Q32.75 65.63 32.75 61.43L32.75 61.43Q32.75 57.47 35.33 55.46Q37.91 53.45 42.59 52.97L42.59 52.97L51.11 52.13L51.11 50.45Q51.11 47.45 49.31 46.07Q47.51 44.69 44.45 44.69L44.45 44.69Q41.93 44.69 39.71 45.41Q37.49 46.13 35.75 47.03L35.75 47.03Q35.27 46.61 34.88 46.07Q34.49 45.53 34.49 44.87L34.49 44.87Q34.49 44.03 34.91 43.49Q35.33 42.95 36.23 42.47L36.23 42.47Q37.85 41.63 39.95 41.18Q42.05 40.73 44.51 40.73ZM84.17 61.85L84.17 61.85Q84.17 65.69 81.35 67.85Q78.53 70.01 73.19 70.01L73.19 70.01Q70.91 70.01 68.99 69.62Q67.07 69.23 65.72 68.60Q64.37 67.97 63.62 67.16Q62.87 66.35 62.87 65.51L62.87 65.51Q62.87 64.79 63.26 64.13Q63.65 63.47 64.43 62.99L64.43 62.99Q66.05 64.19 68.21 65.12Q70.37 66.05 73.13 66.05L73.13 66.05Q79.37 66.05 79.37 61.85L79.37 61.85Q79.37 58.43 75.23 57.41L75.23 57.41L70.25 56.09Q66.59 55.13 64.91 53.30Q63.23 51.47 63.23 48.59L63.23 48.59Q63.23 47.03 63.86 45.59Q64.49 44.15 65.81 43.07Q67.13 41.99 69.08 41.36Q71.03 40.73 73.67 40.73L73.67 40.73Q77.87 40.73 80.45 41.96Q83.03 43.19 83.03 44.81L83.03 44.81Q83.03 45.59 82.64 46.19Q82.25 46.79 81.59 47.09L81.59 47.09Q80.51 46.37 78.53 45.53Q76.55 44.69 73.85 44.69L73.85 44.69Q71.15 44.69 69.56 45.71Q67.97 46.73 67.97 48.59L67.97 48.59Q67.97 49.97 68.87 50.93Q69.77 51.89 71.87 52.37L71.87 52.37L76.01 53.39Q80.09 54.41 82.13 56.42Q84.17 58.43 84.17 61.85ZM96.35 69.11L96.35 69.11Q96.05 69.23 95.45 69.38Q94.85 69.53 94.13 69.53L94.13 69.53Q91.55 69.53 91.55 67.37L91.55 67.37L91.55 30.35Q91.85 30.23 92.48 30.08Q93.11 29.93 93.83 29.93L93.83 29.93Q96.35 29.93 96.35 32.09L96.35 32.09L96.35 53.69L109.49 40.97Q110.93 41.03 111.74 41.66Q112.55 42.29 112.55 43.31L112.55 43.31Q112.55 44.15 112.01 44.78Q111.47 45.41 110.57 46.25L110.57 46.25L100.91 54.71L114.29 66.71Q114.17 68.03 113.48 68.81Q112.79 69.59 111.65 69.59L111.65 69.59Q110.75 69.59 110 69.14Q109.25 68.69 108.47 67.85L108.47 67.85L96.35 55.67L96.35 69.11Z"></path></svg>