<svg xmlns="http://www.w3.org/2000/svg" viewBox="-20 0 500 500"><defs><clipPath id="c"><path d="M0 0h500v500H0z"/></clipPath><filter id="a" width="100%" height="100%" x="0%" y="0%" filterUnits="objectBoundingBox"><feComponentTransfer in="SourceGraphic"><feFuncA tableValues="1.0 0.0" type="table"/></feComponentTransfer></filter><path id="b" fill="#F7C7BE" d="M-11.14.54c-32.26-.62-40.6-3.83-41.16-7.2-.6-3.53 6.47-5.51 12.53-15.93 6.26-10.77 4.26-18.15 7.83-19.6 3.3-1.34 10.66 3.56 28.76 31.18" transform="translate(393.5 144.07)"/><mask id="d" mask-type="alpha"><g filter="url(#a)"><path fill="#fff" d="M0 0h500v500H0z" opacity="0"/><use xmlns:ns1="http://www.w3.org/1999/xlink" ns1:href="#b"/></g></mask></defs><g clip-path="url(#c)"><path fill="#F089A6" d="m231.5 164.06-3.71 99.89-3.86 104.02a2.96 2.96 0 0 1-1.8 2.63c-.51.23-1.1.31-1.66.23a3.04 3.04 0 0 1-1.5-.7l-79.65-68.6L64.41 237a2.92 2.92 0 0 1-.94-1.64 2.84 2.84 0 0 1 .13-1.7l23.5-59.88 22.2-56.53.05-.1c.14-.35.35-.63.6-.88.27-.29.59-.52.95-.66.7-.32 1.52-.36 2.29-.05l55.15 21.65 61.29 24.05a3.02 3.02 0 0 1 1.87 2.8z"/><path fill="#4EB0FB" d="m231.5 164.06-4.14 111.48-3.43 92.43a2.96 2.96 0 0 1-1.8 2.63l-42.64-97.74-32.3-74.02 83.75-36.53a3 3 0 0 1 .56 1.75z"/><path fill="#FDC539" d="m230.94 162.31-48.6 21.2-35.14 15.33-16.6-38.06-19.7-45.17c.7-.32 1.52-.36 2.29-.05l61.3 24.06 55.14 21.64a3 3 0 0 1 1.3 1.05z"/><path fill="#F089A6" d="M-29.16 120.81a3.04 3.04 0 0 1-1.5-.7l-77.36-66.63-77.2-66.5a2.92 2.92 0 0 1-.95-1.64 2.84 2.84 0 0 1 .1-1.58l22.93-58.44 22.8-58.09.05-.11c.14-.34.35-.62.6-.87l-15.24 61.77L-167-23.02v.01l55.31 57.7 82.53 86.12z" opacity=".5" style="mix-blend-mode:multiply" transform="translate(249.63 250.02)"/><path fill="#2EA28B" d="M147.2 198.84 82.63 227v.01l-19.16 8.35a2.84 2.84 0 0 1 .09-1.58l24.17-61.59 21.57-54.94.05-.1c.14-.35.35-.63.6-.88.27-.29.59-.52.95-.66l20.15 46.2 16.15 37.03z"/><path fill="#2EA28B" d="m-139.69-133.75-15.12 61.28-12.2 49.45v.01l-19.16 8.35a2.84 2.84 0 0 1 .1-1.58l23.33-59.46 22.4-57.07.06-.11c.14-.34.35-.62.6-.87z" opacity=".5" style="mix-blend-mode:multiply" transform="translate(249.63 250.02)"/><path fill="none" stroke="#121331" stroke-linecap="round" stroke-linejoin="round" stroke-width="7" d="M224.07 374.48A7510.41 7510.41 0 0 1 63.19 235.92c15.16-37.55 34.1-89.94 47.58-121.19 32.28 12.75 85.95 33.5 121.18 47.58-2.5 72.53-4.75 145.17-7.88 212.17zm-113.3-259.75 36.81 84.4 76.49 175.35m7.88-212.18-84.91 37.05-83.85 36.57m160.88 138.56c38.68 38.02 89.18 52.77 136.13 10.5 35.62-32.08 38.3-81.98 10.98-119.07-25.25-34.3-22.43-78.16-1.53-105.96l48.02-70.07"/><g fill="#F7C7BE"><path d="M389.87 150.9c17.81 26.9 24.89 31.08 28.03 29.76 3.3-1.39 1.2-8.42 6.74-19.12 5.73-11.05 13.04-13.33 12.35-17.12-.64-3.5-8.04-7.45-41.07-7.93m-22.81 4.12c-32.25-.62-40.59-3.83-41.15-7.2-.61-3.53 6.46-5.51 12.53-15.93 6.25-10.77 4.25-18.15 7.82-19.6 3.31-1.34 10.66 3.56 28.77 31.18"/><path d="M394.95 145.95a12.2 12.2 0 1 0-21.4-11.76 12.2 12.2 0 0 0 21.4 11.76z"/><path fill-opacity=".5" d="M10.7 5.88A12.2 12.2 0 1 0-10.7-5.88 12.2 12.2 0 0 0 10.7 5.88z" style="mix-blend-mode:multiply" transform="translate(384.25 140.07)"/></g><g display="block" mask="url(#d)" opacity=".5" style="mix-blend-mode:multiply"><path fill="#F7C7BE" d="M373.11 140.61c-32.26-.62-40.59-3.83-41.15-7.2-.61-3.53 6.46-5.51 12.53-15.93 6.25-10.77 4.25-18.15 7.82-19.6 3.31-1.34 10.66 3.56 28.77 31.18" opacity="1"/></g><path fill="none" stroke="#121331" stroke-linecap="round" stroke-linejoin="round" stroke-width="7" d="M372.1 141.13c-32.26-.62-39.58-4.35-40.14-7.71-.61-3.54 6.46-5.52 12.53-15.94 6.25-10.77 4.25-18.15 7.82-19.6 3.31-1.34 10.6 2.8 28.72 30.42m8.84 22.6c17.81 26.9 24.89 31.08 28.03 29.76 3.3-1.39 1.2-8.42 6.74-19.12 5.73-11.06 13.04-13.33 12.35-17.12-.64-3.5-8.04-7.45-41.07-7.93m-.97 9.46a12.2 12.2 0 1 0-21.4-11.76 12.2 12.2 0 0 0 21.4 11.76z"/><g class="com" display="none"><path/><path/><path/><path/><path/><path/><path/><path/><path/><path/><path/><path/></g></g></svg>